<svg xmlns="http://www.w3.org/2000/svg" viewBox="226.779 27.052 644.84 644.84">
  <defs>
    <linearGradient id="a" x1="-.008" x2=".984" y1=".5" y2=".5">
      <stop offset="0" stop-color="#b07908"/>
      <stop offset=".25" stop-color="#eece5c"/>
      <stop offset=".26" stop-color="#e9c858"/>
      <stop offset=".33" stop-color="#d0a944"/>
      <stop offset=".39" stop-color="#be9335"/>
      <stop offset=".46" stop-color="#b3852c"/>
      <stop offset=".51" stop-color="#b0812a"/>
      <stop offset=".59" stop-color="#bb9037"/>
      <stop offset=".73" stop-color="#d8b95a"/>
      <stop offset=".77" stop-color="#e0c564"/>
      <stop offset=".81" stop-color="#ddc05e"/>
      <stop offset=".86" stop-color="#d4b34e"/>
      <stop offset=".92" stop-color="#c69d33"/>
      <stop offset=".99" stop-color="#b37e0e"/>
      <stop offset="1" stop-color="#b07908"/>
    </linearGradient>
    <linearGradient id="b" x1="591.88" x2="1200.08" y1="639.73" y2="639.73" href="#a"/>
    <linearGradient id="c" x1="591.88" x2="1200.08" y1="1207.52" y2="1207.52" href="#a"/>
    <linearGradient id="d" x1="591.88" x2="1200.08" y1="593.12" y2="593.12" href="#a"/>
  </defs>
  <path fill="url(#a)" d="M644.306 678.253c-13.64-1.12-23.49-7.85-23.49-61.16v-334.99c0-53.87 9.85-60.6 23.49-61.16 4.55 0 8.34-2.81 8.34-6.17 0-3.93-4.55-6.73-9.1-6.73h-101.23c-3.93 0-6.73 3.37-6.73 6.73s1.68 6.17 4.49 6.74c6.17 1.68 11.22 6.73 11.22 16.83 0 5.05-1.12 11.22-3.93 19.08l-121.2 359.68-84.17-258.68 34.23-102.12c8.98-23.57 17.96-32.54 28.05-34.79 2.81-.56 5.05-3.37 5.05-6.17v-1.12c0-3.37-2.81-6.17-6.17-6.17h-46.01c-3.93 0-6.74 3.37-6.74 6.73s2.25 6.17 5.05 6.74c6.17 1.68 10.66 6.73 10.66 17.4 0 4.49-1.12 11.22-3.37 18.52l-27.5 80.8-25.25-76.88c-3.37-10.66-5.05-19.08-5.05-24.69 0-10.66 4.49-14.03 11.22-15.15 2.81-.56 5.61-3.37 5.61-6.74s-3.37-6.73-6.74-6.73h-83.61c-3.93 0-6.74 3.37-6.74 7.29 0 2.81 1.68 5.61 3.93 6.17 10.1 3.37 20.2 17.4 30.3 47.13l49.38 149.82-67.33 198.64-115.6-355.76c-3.93-11.22-5.61-19.08-5.61-24.69 0-10.66 5.05-14.03 11.22-15.15 3.37-.56 5.61-3.37 5.61-6.74s-3.37-6.73-6.73-6.73h-83.6c-2.63 0-4.74 1.51-5.86 3.68a5.8 5.8 0 0 0-.87 3.05c0 .05.02.1.02.16 0 .13-.02.27-.02.4 0 2.81 1.68 5.61 4.49 6.17 8.12 2.86 16.64 13.45 25.57 34.87.66 7.08 1.01 15.57 1.01 25.74v334.99c0 53.31-9.85 60.05-23.49 61.16-4.54 0-7.58 2.81-7.58 6.18s3.79 6.17 8.33 6.17h62.9c4.55 0 8.34-2.81 8.34-6.17s-3.03-6.18-7.58-6.18c-13.64-1.12-23.49-7.85-23.49-61.16v-306.36l120.96 371.45c1.68 5.05 6.73 8.42 11.78 8.42s10.1-2.81 11.22-7.86l82.48-244.09 79.68 243.53c1.68 5.05 6.17 8.42 11.78 8.42 5.05 0 9.54-2.81 11.22-7.86l135.42-400.46v334.8c0 53.31-9.85 60.05-23.49 61.16-4.55 0-7.58 2.81-7.58 6.18s3.79 6.17 8.34 6.17h113.67c4.55 0 9.1-2.81 9.1-6.17s-3.79-6.18-8.34-6.18z" class="cls-4" transform="translate(202.813 -73.85)"/>
  <path fill="url(#b)" d="M46.476 172.303h599.22a6.88 6.88 0 1 0 0-13.76H46.476a6.88 6.88 0 1 0 0 13.76" class="cls-9" transform="translate(202.813 -73.85)"/>
  <path fill="url(#c)" d="M645.696 726.313H46.476a6.88 6.88 0 1 0 0 13.76h599.22a6.88 6.88 0 1 0 0-13.76" class="cls-5" transform="translate(202.813 -73.85)"/>
  <path fill="url(#d)" d="M114.776 126.333h462.62c4.16 0 7.52-3.37 7.52-7.52s-3.37-7.52-7.52-7.52h-462.62c-4.16 0-7.52 3.37-7.52 7.52s3.37 7.52 7.52 7.52" class="cls-2" transform="translate(202.813 -73.85)"/>
</svg>