<svg xmlns="http://www.w3.org/2000/svg" viewBox="12.77 224.78 468.02 78.4">
  <defs>
    <linearGradient id="a" x1="781.71" x2="1036.35" y1="774.16" y2="774.16" gradientTransform="translate(-613.653 -820.517)" gradientUnits="userSpaceOnUse">
      <stop offset="0" stop-color="#b07908"/>
      <stop offset=".25" stop-color="#eece5c"/>
      <stop offset=".26" stop-color="#e9c858"/>
      <stop offset=".33" stop-color="#d0a944"/>
      <stop offset=".39" stop-color="#be9335"/>
      <stop offset=".46" stop-color="#b3852c"/>
      <stop offset=".51" stop-color="#b0812a"/>
      <stop offset=".59" stop-color="#bb9037"/>
      <stop offset=".73" stop-color="#d8b95a"/>
      <stop offset=".77" stop-color="#e0c564"/>
      <stop offset=".81" stop-color="#ddc05e"/>
      <stop offset=".86" stop-color="#d4b34e"/>
      <stop offset=".92" stop-color="#c69d33"/>
      <stop offset=".99" stop-color="#b37e0e"/>
      <stop offset="1" stop-color="#b07908"/>
    </linearGradient>
    <linearGradient id="v" x2="1036.35" y1="655.3" y2="655.3" gradientTransform="translate(-613.653 -820.517)" href="#a"/>
    <linearGradient id="w" x2="1036.35" y1="893.02" y2="893.02" gradientTransform="translate(-613.653 -820.517)" href="#a"/>
    <linearGradient id="x" x2="1036.35" y1="635.79" y2="635.79" gradientTransform="translate(-613.653 -820.517)" href="#a"/>
    <linearGradient id="b" x1="441.39" x2="441.75" y1="1115.2" y2="1181.44" gradientTransform="translate(-613.653 -820.517)" href="#a"/>
    <linearGradient id="c" x1="488.13" x2="488.49" y1="1114.95" y2="1181.19" gradientTransform="translate(-613.653 -820.517)" href="#a"/>
    <linearGradient id="d" x1="538.63" x2="538.99" y1="1114.67" y2="1180.91" gradientTransform="translate(-613.653 -820.517)" href="#a"/>
    <linearGradient id="e" x1="572.56" x2="572.92" y1="1114.49" y2="1180.73" gradientTransform="translate(-613.653 -820.517)" href="#a"/>
    <linearGradient id="f" x1="602.87" x2="603.23" y1="1114.33" y2="1180.57" gradientTransform="translate(-613.653 -820.517)" href="#a"/>
    <linearGradient id="g" x1="646.1" x2="646.46" y1="1114.09" y2="1180.33" gradientTransform="translate(-613.653 -820.517)" href="#a"/>
    <linearGradient id="h" x1="693.42" x2="693.78" y1="1113.83" y2="1180.07" gradientTransform="translate(-613.653 -820.517)" href="#a"/>
    <linearGradient id="i" x1="739.9" x2="740.26" y1="1113.58" y2="1179.82" gradientTransform="translate(-613.653 -820.517)" href="#a"/>
    <linearGradient id="j" x1="783.84" x2="784.2" y1="1113.34" y2="1179.58" gradientTransform="translate(-613.653 -820.517)" href="#a"/>
    <linearGradient id="k" x1="854.36" x2="854.72" y1="1112.96" y2="1179.2" gradientTransform="translate(-613.653 -820.517)" href="#a"/>
    <linearGradient id="l" x1="898.3" x2="898.66" y1="1112.72" y2="1178.96" gradientTransform="translate(-613.653 -820.517)" href="#a"/>
    <linearGradient id="m" x1="969.87" x2="970.23" y1="1112.33" y2="1178.57" gradientTransform="translate(-613.653 -820.517)" href="#a"/>
    <linearGradient id="n" x1="1016.35" x2="1016.71" y1="1112.08" y2="1178.32" gradientTransform="translate(-613.653 -820.517)" href="#a"/>
    <linearGradient id="o" x1="1064.85" x2="1065.21" y1="1111.82" y2="1178.06" gradientTransform="translate(-613.653 -820.517)" href="#a"/>
    <linearGradient id="p" x1="1116.15" x2="1116.51" y1="1111.54" y2="1177.78" gradientTransform="translate(-613.653 -820.517)" href="#a"/>
    <linearGradient id="q" x1="1166.52" x2="1166.88" y1="1111.26" y2="1177.5" gradientTransform="translate(-613.653 -820.517)" href="#a"/>
    <linearGradient id="r" x1="1214.92" x2="1215.28" y1="1111" y2="1177.24" gradientTransform="translate(-613.653 -820.517)" href="#a"/>
    <linearGradient id="s" x1="1261.4" x2="1261.76" y1="1110.75" y2="1176.99" gradientTransform="translate(-613.653 -820.517)" href="#a"/>
    <linearGradient id="t" x1="1311.1" x2="1311.46" y1="1110.48" y2="1176.72" gradientTransform="translate(-613.653 -820.517)" href="#a"/>
    <linearGradient id="u" x1="1358.39" x2="1358.75" y1="1110.22" y2="1176.46" gradientTransform="translate(-613.653 -820.517)" href="#a"/>
  </defs>
  <text x="-304.24" y="222.823" fill="#f6f7fc" class="cls-22" font-family="SimpleMichael,&quot;Simple Michael&quot;" style="white-space:pre" transform="translate(217.913 198.345) scale(.2978)"><tspan x="-304.24" y="222.823" class="cls-17" font-size="129.8" style="line-height:207.648px" word-spacing="0">M</tspan><tspan x="-198.99" y="222.823" class="cls-12" font-size="129.8" style="line-height:207.648px" word-spacing="0">A</tspan><tspan x="-106.59" y="222.823" class="cls-14" font-size="129.8" style="line-height:207.648px" word-spacing="0">R</tspan><tspan x="-19.899" y="222.823" class="cls-15" font-size="129.8" style="line-height:207.648px" word-spacing="0">RESE &amp;</tspan><tspan x="440.147" y="222.823" class="cls-30" font-size="73" style="line-height:116.8px" word-spacing="0"> </tspan><tspan x="462.047" y="222.823" class="cls-16" font-size="129.8" style="line-height:207.648px" word-spacing="0">W</tspan><tspan x="597.147" y="222.823" class="cls-15" font-size="129.8" style="line-height:207.648px" word-spacing="0">IS</tspan><tspan x="706.677" y="222.823" class="cls-13" font-size="129.8" letter-spacing="-5.19" style="line-height:207.648px" word-spacing="0">K</tspan><tspan x="788.957" y="222.823" class="cls-15" font-size="129.8" style="line-height:207.648px" word-spacing="0">Y</tspan></text>
  <path fill="url(#b)" d="M-181.21 324.953c.99 1.51 2.24 2.71 3.73 3.58 1.49.88 3.15 1.31 4.99 1.31 1.07 0 2.11-.18 3.1-.54 1-.36 1.87-.84 2.63-1.43.75-.6 1.35-1.31 1.79-2.15.44-.84.66-1.73.66-2.69s-.21-1.79-.63-2.63c-.42-.84-.99-1.59-1.7-2.27-.72-.68-1.55-1.25-2.51-1.73-.96-.48-1.97-.8-3.05-.96-1.71-.24-3.3-.71-4.78-1.4-1.47-.7-2.76-1.57-3.85-2.63-1.1-1.05-1.96-2.24-2.6-3.55a9.42 9.42 0 0 1-.96-4.18c0-1.63.34-3.16 1.01-4.57.68-1.41 1.6-2.63 2.78-3.64 1.17-1.01 2.56-1.81 4.15-2.39 1.59-.58 3.28-.87 5.08-.87 2.39 0 4.54.47 6.45 1.4 1.91.93 3.64 2.26 5.2 3.97l-3.58 2.87c-1.04-1.27-2.23-2.27-3.58-2.99-1.35-.72-2.85-1.08-4.48-1.08-1.11 0-2.19.19-3.22.57-1.04.38-1.95.89-2.75 1.52a7.55 7.55 0 0 0-1.91 2.24c-.48.86-.72 1.76-.72 2.72 0 .96.21 1.88.63 2.78.42.9.99 1.69 1.73 2.39.74.7 1.6 1.27 2.6 1.73.99.46 2.07.73 3.22.81 1.71.2 3.29.66 4.75 1.37 1.46.71 2.72 1.59 3.79 2.63 1.08 1.04 1.91 2.22 2.51 3.55.6 1.33.9 2.72.9 4.15 0 1.59-.34 3.08-1.01 4.45-.68 1.37-1.59 2.57-2.75 3.58-1.16 1.01-2.51 1.82-4.06 2.42-1.55.6-3.2.9-4.96.9-2.51 0-4.82-.61-6.93-1.82-2.11-1.21-3.8-2.78-5.08-4.69l3.4-2.75.01.02Z" class="cls-39" transform="translate(217.913 198.345) scale(.2978)"/>
  <path fill="url(#c)" d="M-112.31 328.413c-1.71 1.87-3.67 3.3-5.88 4.3-2.21.99-4.61 1.49-7.2 1.49s-4.91-.54-7.2-1.61-4.3-2.56-6.03-4.45c-1.73-1.89-3.1-4.13-4.12-6.72-1.01-2.59-1.52-5.37-1.52-8.36 0-2.99.5-5.62 1.49-8.15.99-2.53 2.34-4.74 4.03-6.63 1.69-1.89 3.68-3.38 5.97-4.48 2.29-1.09 4.75-1.64 7.38-1.64s5.2.55 7.49 1.64a18.77 18.77 0 0 1 5.94 4.45c1.67 1.87 2.99 4.08 3.94 6.63.96 2.55 1.43 5.28 1.43 8.18 0 3.11-.5 5.95-1.49 8.54-1 2.59-2.41 4.86-4.24 6.81h.01Zm-3.16-27.47a13.212 13.212 0 0 0-4.48-3.22c-1.71-.76-3.52-1.13-5.43-1.13-1.91 0-3.86.43-5.61 1.28-1.75.86-3.28 2.03-4.6 3.52-1.31 1.49-2.35 3.24-3.1 5.23-.76 1.99-1.13 4.14-1.13 6.45 0 2.31.38 4.48 1.13 6.51.75 2.03 1.78 3.8 3.07 5.31 1.29 1.51 2.82 2.71 4.57 3.58 1.75.88 3.64 1.31 5.67 1.31s3.99-.44 5.76-1.31c1.77-.88 3.31-2.07 4.63-3.58 1.32-1.51 2.34-3.28 3.08-5.31.74-2.03 1.1-4.2 1.1-6.51 0-2.43-.41-4.69-1.22-6.78-.82-2.09-1.96-3.87-3.43-5.34l-.01-.01Z" class="cls-31" transform="translate(217.913 198.345) scale(.2978)"/>
  <path fill="url(#d)" d="M-61.789 301.603c-1.51-1.59-3.17-2.84-4.96-3.73-1.79-.9-3.64-1.34-5.55-1.34-1.91 0-3.86.43-5.61 1.28-1.75.86-3.28 2.03-4.6 3.52-1.31 1.49-2.35 3.25-3.1 5.25-.76 2.01-1.13 4.17-1.13 6.48 0 2.31.37 4.42 1.1 6.45.73 2.03 1.74 3.8 3.02 5.31 1.27 1.51 2.8 2.72 4.57 3.61 1.77.9 3.69 1.34 5.76 1.34 1.91 0 3.74-.45 5.49-1.34 1.75-.89 3.4-2.12 4.96-3.67l2.99 2.99c-1.91 1.99-4.01 3.56-6.3 4.72-2.29 1.16-4.67 1.73-7.14 1.73-2.47 0-4.9-.56-7.17-1.67-2.27-1.11-4.27-2.64-6-4.57-1.73-1.93-3.12-4.18-4.15-6.75-1.04-2.57-1.55-5.28-1.55-8.15s.49-5.44 1.46-7.97c.97-2.53 2.32-4.75 4.03-6.66a19.85 19.85 0 0 1 6-4.57c2.29-1.13 4.75-1.7 7.37-1.7s4.94.58 7.29 1.73a21.22 21.22 0 0 1 6.27 4.72l-3.04 2.99h-.01Z" class="cls-36" transform="translate(217.913 198.345) scale(.2978)"/>
  <path fill="url(#e)" d="M-38.799 333.673h-4.36v-41.26h4.36v41.26Z" class="cls-35" transform="translate(217.913 198.345) scale(.2978)"/>
  <path fill="url(#f)" d="M-1.369 313.963h-17.32v15.35h20.3v4.36h-24.6v-41.26h24.6v4.24h-20.3v12.96h17.32v4.36-.01Z" class="cls-19" transform="translate(217.913 198.345) scale(.2978)"/>
  <path fill="url(#g)" d="M17.501 292.413h15.52c2.03.04 3.94.6 5.73 1.67 1.79 1.08 3.35 2.54 4.69 4.39 1.33 1.85 2.38 4.02 3.13 6.51.76 2.49 1.13 5.15 1.13 7.97 0 2.82-.38 5.48-1.13 7.97-.76 2.49-1.79 4.67-3.11 6.54-1.32 1.87-2.86 3.35-4.63 4.45a11.48 11.48 0 0 1-5.7 1.76h-15.64v-41.26h.01Zm4.36 4.35v32.54h2.72c.9 0 1.8-.02 2.72-.06 1 0 1.98 0 2.96-.03.97-.02 1.94-.03 2.9-.03 1.39-.04 2.71-.5 3.94-1.37 1.23-.88 2.32-2.04 3.25-3.49.93-1.45 1.67-3.15 2.21-5.11.54-1.95.81-4.04.81-6.27 0-2.23-.27-4.32-.81-6.27-.54-1.95-1.27-3.65-2.21-5.11-.94-1.46-2.03-2.61-3.28-3.46-1.25-.85-2.6-1.3-4.03-1.34h-11.18Z" class="cls-29" transform="translate(217.913 198.345) scale(.2978)"/>
  <path fill="url(#h)" d="M78.351 292.413h3.28l15.23 41.26h-4.54l-6.03-16.3h-12.54c-.64 1.71-1.28 3.45-1.94 5.22-.66 1.77-1.32 3.55-2 5.34-.36.92-.74 1.88-1.13 2.9-.4 1.01-.76 1.96-1.08 2.84h-4.48l15.23-41.26Zm6.33 20.6c-.32-.92-.7-1.94-1.13-3.08-.44-1.13-.82-2.14-1.13-3.02v.06c-.24-.64-.46-1.2-.66-1.7s-.39-.99-.57-1.46c-.18-.48-.37-.98-.57-1.49a43.3 43.3 0 0 1-.66-1.85c-.32.76-.64 1.55-.96 2.39-.32.84-.6 1.63-.84 2.39v.06c-.56 1.39-1.04 2.65-1.43 3.76-.4 1.11-.88 2.43-1.43 3.94h9.38Z" class="cls-6" transform="translate(217.913 198.345) scale(.2978)"/>
  <path fill="url(#i)" d="M111.311 292.413h15.52c2.03.04 3.94.6 5.73 1.67 1.79 1.08 3.35 2.54 4.69 4.39 1.33 1.85 2.38 4.02 3.13 6.51.76 2.49 1.13 5.15 1.13 7.97 0 2.82-.38 5.48-1.13 7.97-.76 2.49-1.79 4.67-3.11 6.54-1.32 1.87-2.86 3.35-4.63 4.45a11.48 11.48 0 0 1-5.7 1.76h-15.64v-41.26h.01Zm4.36 4.35v32.54h2.72c.9 0 1.8-.02 2.72-.06 1 0 1.98 0 2.96-.03.97-.02 1.94-.03 2.9-.03 1.39-.04 2.71-.5 3.94-1.37 1.23-.88 2.32-2.04 3.25-3.49.93-1.45 1.67-3.15 2.21-5.11.54-1.95.81-4.04.81-6.27 0-2.23-.27-4.32-.81-6.27-.54-1.95-1.27-3.65-2.21-5.11-.94-1.46-2.03-2.61-3.28-3.46-1.25-.85-2.6-1.3-4.03-1.34h-11.18Z" class="cls-32" transform="translate(217.913 198.345) scale(.2978)"/>
  <path fill="url(#j)" d="M179.621 313.963h-17.32v15.35h20.3v4.36h-24.6v-41.26h24.6v4.24h-20.3v12.96h17.32v4.36-.01Z" class="cls-2" transform="translate(217.913 198.345) scale(.2978)"/>
  <path fill="url(#k)" d="M225.771 292.413h15.52c2.03.04 3.94.6 5.73 1.67 1.79 1.08 3.35 2.54 4.69 4.39 1.33 1.85 2.38 4.02 3.13 6.51.76 2.49 1.13 5.15 1.13 7.97 0 2.82-.38 5.48-1.13 7.97-.76 2.49-1.79 4.67-3.11 6.54-1.32 1.87-2.86 3.35-4.63 4.45a11.48 11.48 0 0 1-5.7 1.76h-15.64v-41.26h.01Zm4.36 4.35v32.54h2.72c.9 0 1.8-.02 2.72-.06 1 0 1.98 0 2.96-.03.97-.02 1.94-.03 2.9-.03 1.39-.04 2.71-.5 3.94-1.37 1.23-.88 2.32-2.04 3.25-3.49.93-1.45 1.67-3.15 2.21-5.11.54-1.95.81-4.04.81-6.27 0-2.23-.27-4.32-.81-6.27-.54-1.95-1.27-3.65-2.21-5.11-.94-1.46-2.03-2.61-3.28-3.46-1.25-.85-2.6-1.3-4.03-1.34h-11.18Z" class="cls-3" transform="translate(217.913 198.345) scale(.2978)"/>
  <path fill="url(#l)" d="M294.081 313.963h-17.32v15.35h20.3v4.36h-24.6v-41.26h24.6v4.24h-20.3v12.96h17.32v4.36-.01Z" class="cls-4" transform="translate(217.913 198.345) scale(.2978)"/>
  <path fill="url(#m)" d="M354.811 292.413h3.28l15.226 41.26h-4.54l-6.03-16.3h-12.536c-.64 1.71-1.28 3.45-1.94 5.22-.66 1.77-1.32 3.55-2 5.34-.36.92-.74 1.88-1.13 2.9-.4 1.01-.76 1.96-1.08 2.84h-4.48l15.23-41.26Zm6.326 20.6c-.32-.92-.696-1.94-1.126-3.08-.44-1.13-.82-2.14-1.13-3.02v.06c-.24-.64-.46-1.2-.66-1.7s-.39-.99-.57-1.46c-.18-.48-.37-.98-.57-1.49a43.3 43.3 0 0 1-.66-1.85c-.32.76-.64 1.55-.96 2.39-.32.84-.6 1.63-.84 2.39v.06c-.56 1.39-1.04 2.65-1.43 3.76-.4 1.11-.88 2.43-1.43 3.94h9.376Z" class="cls-10" transform="translate(217.913 198.345) scale(.2978)"/>
  <path fill="url(#n)" d="M387.767 292.413h15.52c2.03.04 3.94.6 5.73 1.67 1.79 1.08 3.35 2.54 4.69 4.39 1.33 1.85 2.38 4.02 3.13 6.51.76 2.49 1.13 5.15 1.13 7.97 0 2.82-.38 5.48-1.13 7.97-.76 2.49-1.79 4.67-3.1 6.54s-2.86 3.35-4.63 4.45a11.48 11.48 0 0 1-5.7 1.76h-15.64v-41.26Zm4.36 4.35v32.54h2.72c.9 0 1.8-.02 2.72-.06 1 0 1.98 0 2.96-.03.97-.02 1.94-.03 2.9-.03 1.39-.04 2.71-.5 3.94-1.37 1.23-.88 2.32-2.04 3.25-3.49.93-1.45 1.67-3.15 2.21-5.11.54-1.95.81-4.04.81-6.27 0-2.23-.27-4.32-.81-6.27-.54-1.95-1.27-3.65-2.21-5.11-.94-1.46-2.03-2.61-3.28-3.46-1.25-.86-2.6-1.3-4.03-1.34h-11.18Z" class="cls-37" transform="translate(217.913 198.345) scale(.2978)"/>
  <path fill="url(#o)" d="M434.097 292.413h4.48l12.66 33.98c.84-2.39 1.69-4.74 2.57-7.05.88-2.31 1.75-4.66 2.63-7.05 1.23-3.26 2.48-6.59 3.73-9.97 1.25-3.38 2.46-6.69 3.61-9.91h4.54l-15.23 41.26h-3.82l-15.17-41.26Z" class="cls-8" transform="translate(217.913 198.345) scale(.2978)"/>
  <path fill="url(#p)" d="M515.727 328.413c-1.71 1.87-3.67 3.3-5.88 4.3-2.21.99-4.61 1.49-7.19 1.49s-4.91-.54-7.2-1.61-4.3-2.56-6.03-4.45c-1.73-1.89-3.1-4.13-4.12-6.72-1.01-2.59-1.52-5.37-1.52-8.36 0-2.99.5-5.62 1.49-8.15 1-2.53 2.34-4.74 4.03-6.63 1.69-1.89 3.68-3.38 5.97-4.48 2.29-1.09 4.75-1.64 7.38-1.64s5.2.55 7.49 1.64a18.77 18.77 0 0 1 5.94 4.45c1.67 1.87 2.99 4.08 3.94 6.63.96 2.55 1.43 5.28 1.43 8.18 0 3.11-.5 5.95-1.49 8.54-1 2.59-2.41 4.86-4.24 6.81Zm-3.17-27.47a13.212 13.212 0 0 0-4.48-3.22c-1.71-.76-3.52-1.13-5.43-1.13-1.91 0-3.86.43-5.61 1.28-1.75.86-3.28 2.03-4.6 3.52-1.31 1.49-2.35 3.24-3.11 5.23-.76 1.99-1.13 4.14-1.13 6.45 0 2.31.38 4.48 1.13 6.51.76 2.03 1.78 3.8 3.08 5.31 1.29 1.51 2.82 2.71 4.57 3.58 1.75.88 3.64 1.31 5.67 1.31s3.99-.44 5.76-1.31c1.77-.88 3.31-2.07 4.63-3.58 1.31-1.51 2.34-3.28 3.08-5.31.74-2.03 1.1-4.2 1.1-6.51 0-2.43-.41-4.69-1.22-6.78-.82-2.09-1.96-3.87-3.43-5.34l-.01-.01Z" class="cls-26" transform="translate(217.913 198.345) scale(.2978)"/>
  <path fill="url(#q)" d="M568.687 328.413c-1.79 1.83-3.79 3.25-6 4.27-2.21 1.02-4.57 1.52-7.08 1.52s-5.09-.56-7.37-1.67a19.503 19.503 0 0 1-6-4.51c-1.71-1.89-3.07-4.11-4.06-6.66-1-2.55-1.49-5.25-1.49-8.12 0-2.87.5-5.63 1.49-8.18s2.35-4.78 4.06-6.69a19.44 19.44 0 0 1 6-4.54c2.29-1.11 4.75-1.67 7.37-1.67s4.93.57 7.25 1.7c2.33 1.13 4.45 2.72 6.36 4.75l-3.04 3.05c-1.51-1.59-3.18-2.84-4.99-3.73-1.81-.9-3.67-1.34-5.58-1.34a13 13 0 0 0-5.7 1.28c-1.77.86-3.31 2.04-4.63 3.55-1.31 1.51-2.36 3.28-3.13 5.31s-1.16 4.2-1.16 6.51c0 2.31.39 4.42 1.16 6.45.77 2.03 1.82 3.81 3.13 5.34 1.31 1.53 2.86 2.74 4.63 3.61 1.77.88 3.67 1.31 5.7 1.31 1.67 0 3.26-.33 4.78-.99 1.51-.66 2.87-1.5 4.06-2.54v-9.85h-10.81v-4.24h15.17v15.47l-.12.6v.01Z" class="cls-20" transform="translate(217.913 198.345) scale(.2978)"/>
  <path fill="url(#r)" d="M599.857 292.413h3.28l15.23 41.26h-4.54l-6.03-16.3h-12.54c-.64 1.71-1.28 3.45-1.94 5.22-.66 1.77-1.32 3.55-2 5.34-.36.92-.74 1.88-1.13 2.9-.4 1.01-.76 1.96-1.08 2.84h-4.48l15.23-41.26Zm6.33 20.6c-.32-.92-.7-1.94-1.13-3.08-.44-1.13-.82-2.14-1.13-3.02v.06c-.24-.64-.46-1.2-.66-1.7s-.39-.99-.57-1.46c-.18-.48-.37-.98-.57-1.49a43.3 43.3 0 0 1-.66-1.85c-.32.76-.64 1.55-.96 2.39-.32.84-.6 1.63-.84 2.39v.06c-.56 1.39-1.04 2.65-1.43 3.76-.4 1.11-.88 2.43-1.43 3.94h9.38Z" class="cls-34" transform="translate(217.913 198.345) scale(.2978)"/>
  <path fill="url(#s)" d="M632.817 292.413h15.52c2.03.04 3.94.6 5.73 1.67 1.79 1.08 3.35 2.54 4.69 4.39 1.33 1.85 2.38 4.02 3.13 6.51.76 2.49 1.13 5.15 1.13 7.97 0 2.82-.38 5.48-1.13 7.97-.76 2.49-1.79 4.67-3.1 6.54s-2.86 3.35-4.63 4.45a11.48 11.48 0 0 1-5.7 1.76h-15.64v-41.26Zm4.36 4.35v32.54h2.72c.9 0 1.8-.02 2.72-.06 1 0 1.98 0 2.96-.03.97-.02 1.94-.03 2.9-.03 1.39-.04 2.71-.5 3.94-1.37 1.23-.88 2.32-2.04 3.25-3.49.93-1.45 1.67-3.15 2.21-5.11.54-1.95.81-4.04.81-6.27 0-2.23-.27-4.32-.81-6.27-.54-1.95-1.27-3.65-2.21-5.11-.94-1.46-2.03-2.61-3.28-3.46-1.25-.86-2.6-1.3-4.03-1.34h-11.18Z" class="cls-27" transform="translate(217.913 198.345) scale(.2978)"/>
  <path fill="url(#t)" d="M710.677 328.413c-1.71 1.87-3.67 3.3-5.88 4.3-2.21.99-4.61 1.49-7.19 1.49s-4.91-.54-7.2-1.61-4.3-2.56-6.03-4.45c-1.73-1.89-3.1-4.13-4.12-6.72-1.01-2.59-1.52-5.37-1.52-8.36 0-2.99.5-5.62 1.49-8.15 1-2.53 2.34-4.74 4.03-6.63 1.69-1.89 3.68-3.38 5.97-4.48 2.29-1.09 4.75-1.64 7.38-1.64s5.2.55 7.49 1.64a18.77 18.77 0 0 1 5.94 4.45c1.67 1.87 2.99 4.08 3.94 6.63.96 2.55 1.43 5.28 1.43 8.18 0 3.11-.5 5.95-1.49 8.54-1 2.59-2.41 4.86-4.24 6.81Zm-3.16-27.47a13.212 13.212 0 0 0-4.48-3.22c-1.71-.76-3.52-1.13-5.43-1.13-1.91 0-3.86.43-5.61 1.28-1.75.86-3.28 2.03-4.6 3.52-1.31 1.49-2.35 3.24-3.11 5.23-.76 1.99-1.13 4.14-1.13 6.45 0 2.31.38 4.48 1.13 6.51.76 2.03 1.78 3.8 3.08 5.31 1.29 1.51 2.82 2.71 4.57 3.58 1.75.88 3.64 1.31 5.67 1.31s3.99-.44 5.76-1.31c1.77-.88 3.31-2.07 4.63-3.58 1.31-1.51 2.34-3.28 3.08-5.31.74-2.03 1.1-4.2 1.1-6.51 0-2.43-.41-4.69-1.22-6.78-.82-2.09-1.96-3.87-3.43-5.34l-.01-.01Z" class="cls-21" transform="translate(217.913 198.345) scale(.2978)"/>
  <path fill="url(#u)" d="M735.817 324.953c1 1.51 2.24 2.71 3.73 3.58 1.49.87 3.15 1.31 4.99 1.31 1.08 0 2.11-.18 3.11-.54a9.63 9.63 0 0 0 2.63-1.43c.76-.59 1.35-1.31 1.79-2.15.44-.84.66-1.73.66-2.69s-.21-1.79-.63-2.63c-.42-.84-.99-1.59-1.7-2.27-.72-.68-1.55-1.25-2.51-1.73-.96-.48-1.97-.8-3.05-.96-1.71-.24-3.3-.71-4.78-1.4-1.47-.7-2.76-1.57-3.85-2.63-1.1-1.05-1.96-2.24-2.6-3.55a9.42 9.42 0 0 1-.96-4.18c0-1.63.34-3.16 1.01-4.57.68-1.41 1.6-2.63 2.78-3.64 1.17-1.01 2.56-1.81 4.15-2.39 1.59-.58 3.28-.87 5.08-.87 2.39 0 4.54.47 6.45 1.4 1.91.94 3.64 2.26 5.19 3.97l-3.58 2.87c-1.04-1.27-2.23-2.27-3.58-2.99-1.35-.72-2.85-1.08-4.48-1.08-1.11 0-2.19.19-3.22.57-1.04.38-1.95.89-2.75 1.52a7.55 7.55 0 0 0-1.91 2.24c-.48.86-.72 1.76-.72 2.72 0 .96.21 1.88.63 2.78.42.9 1 1.69 1.73 2.39.74.7 1.6 1.27 2.6 1.73 1 .46 2.07.73 3.22.81 1.71.2 3.29.66 4.75 1.37 1.46.71 2.72 1.59 3.79 2.63 1.07 1.04 1.91 2.22 2.51 3.55.6 1.33.9 2.72.9 4.15 0 1.59-.34 3.08-1.01 4.45-.68 1.37-1.59 2.57-2.75 3.58-1.16 1.01-2.51 1.82-4.06 2.42-1.55.6-3.21.9-4.96.9-2.51 0-4.82-.61-6.93-1.82-2.11-1.21-3.8-2.78-5.08-4.69l3.4-2.75.01.02Z" class="cls-28" transform="translate(217.913 198.345) scale(.2978)"/>
  <path fill="url(#a)" d="M423.347 49.493c-5.71-.47-9.84-3.29-9.84-25.61V-116.37c0-22.55 4.12-25.37 9.84-25.61 1.9 0 3.49-1.17 3.49-2.58 0-1.64-1.9-2.82-3.81-2.82h-42.38c-1.65 0-2.82 1.41-2.82 2.82s.71 2.58 1.88 2.82c2.58.7 4.7 2.82 4.7 7.05 0 2.11-.47 4.7-1.65 7.99L332.021 23.893l-35.24-108.3 14.33-42.763c3.76-9.87 7.52-13.63 11.75-14.57 1.18-.24 2.12-1.41 2.12-2.58v-.47a2.6 2.6 0 0 0-2.58-2.58h-19.26c-1.65 0-2.82 1.41-2.82 2.82s.94 2.58 2.11 2.82c2.58.7 4.46 2.82 4.46 7.28 0 1.88-.47 4.7-1.41 7.75l-11.51 33.833-10.57-32.193c-1.41-4.46-2.12-7.99-2.12-10.34 0-4.46 1.88-5.87 4.7-6.34 1.17-.24 2.35-1.41 2.35-2.82s-1.41-2.82-2.82-2.82h-35c-1.65 0-2.82 1.41-2.82 3.05 0 1.17.7 2.35 1.65 2.58 4.23 1.41 8.46 7.28 12.69 19.73l20.67 62.733-28.19 83.16-48.4-148.943c-1.64-4.7-2.35-7.99-2.35-10.34 0-4.46 2.12-5.87 4.7-6.34 1.41-.24 2.35-1.41 2.35-2.82s-1.41-2.82-2.82-2.82h-35.01c-1.1 0-1.99.63-2.46 1.54-.23.38-.36.81-.36 1.28v.24c0 1.17.7 2.35 1.88 2.58 3.4 1.2 6.97 5.63 10.7 14.6.28 2.97.42 6.52.42 10.77V23.873c0 22.32-4.12 25.14-9.84 25.61-1.9 0-3.17 1.18-3.17 2.59s1.59 2.58 3.49 2.58h26.33c1.9 0 3.49-1.18 3.49-2.58 0-1.4-1.27-2.59-3.17-2.59-5.71-.47-9.84-3.29-9.84-25.61V-104.39l50.64 155.513c.7 2.11 2.82 3.52 4.93 3.52s4.23-1.18 4.7-3.29l34.53-102.19 33.36 101.96c.7 2.11 2.58 3.52 4.93 3.52 2.11 0 3.99-1.18 4.7-3.29l56.686-167.663V23.863c0 22.32-4.12 25.14-9.84 25.61-1.9 0-3.17 1.18-3.17 2.59s1.59 2.58 3.49 2.58h47.59c1.9 0 3.81-1.18 3.81-2.58 0-1.4-1.59-2.59-3.49-2.59l.03.02Z" class="cls-9" transform="translate(-37.048 280.728) scale(.2978)"/>
  <path fill="url(#v)" d="M170.161-162.33h250.866a2.88 2.88 0 0 0 0-5.76H170.161a2.88 2.88 0 0 0 0 5.76Z" class="cls-25" transform="translate(-37.048 280.728) scale(.2978)"/>
  <path fill="url(#w)" d="M421.037 69.613H170.171a2.88 2.88 0 0 0 0 5.76h250.866a2.88 2.88 0 0 0 0-5.76Z" class="cls-11" transform="translate(-37.048 280.728) scale(.2978)"/>
  <path fill="url(#x)" d="M200.221-181.58h193.676a3.15 3.15 0 1 0 0-6.3H200.221a3.15 3.15 0 1 0 0 6.3Z" class="cls-5" transform="translate(-37.048 280.728) scale(.2978)"/>
</svg>